<svg xmlns="http://www.w3.org/2000/svg" width="400" height="364" viewBox="0 0 400 364">
<rect width="400" height="364" rx="6" fill="#0d1117"/>
<text x="25" y="28" font-family="Segoe UI, Arial, sans-serif" font-size="15" font-weight="600" fill="#58a6ff">Most Used Languages</text>
<text x="25" y="64" font-family="Segoe UI, Arial, sans-serif" font-size="12" fill="#e6edf3">Python</text>
<text x="375" y="64" font-family="Segoe UI, Arial, sans-serif" font-size="11" fill="#8b949e" text-anchor="end">15 repos (30%)</text>
<rect x="25" y="72" width="350" height="8" rx="4" fill="#161b22"/>
<rect x="25" y="72" width="350.0" height="8" rx="4" fill="#3572A5"/>
<text x="25" y="106" font-family="Segoe UI, Arial, sans-serif" font-size="12" fill="#e6edf3">JavaScript</text>
<text x="375" y="106" font-family="Segoe UI, Arial, sans-serif" font-size="11" fill="#8b949e" text-anchor="end">9 repos (18%)</text>
<rect x="25" y="114" width="350" height="8" rx="4" fill="#161b22"/>
<rect x="25" y="114" width="210.0" height="8" rx="4" fill="#f1e05a"/>
<text x="25" y="148" font-family="Segoe UI, Arial, sans-serif" font-size="12" fill="#e6edf3">CSS</text>
<text x="375" y="148" font-family="Segoe UI, Arial, sans-serif" font-size="11" fill="#8b949e" text-anchor="end">8 repos (16%)</text>
<rect x="25" y="156" width="350" height="8" rx="4" fill="#161b22"/>
<rect x="25" y="156" width="186.66666666666666" height="8" rx="4" fill="#563d7c"/>
<text x="25" y="190" font-family="Segoe UI, Arial, sans-serif" font-size="12" fill="#e6edf3">Java</text>
<text x="375" y="190" font-family="Segoe UI, Arial, sans-serif" font-size="11" fill="#8b949e" text-anchor="end">7 repos (14%)</text>
<rect x="25" y="198" width="350" height="8" rx="4" fill="#161b22"/>
<rect x="25" y="198" width="163.33333333333334" height="8" rx="4" fill="#b07219"/>
<text x="25" y="232" font-family="Segoe UI, Arial, sans-serif" font-size="12" fill="#e6edf3">HTML</text>
<text x="375" y="232" font-family="Segoe UI, Arial, sans-serif" font-size="11" fill="#8b949e" text-anchor="end">5 repos (10%)</text>
<rect x="25" y="240" width="350" height="8" rx="4" fill="#161b22"/>
<rect x="25" y="240" width="116.66666666666666" height="8" rx="4" fill="#e34c26"/>
<text x="25" y="274" font-family="Segoe UI, Arial, sans-serif" font-size="12" fill="#e6edf3">C#</text>
<text x="375" y="274" font-family="Segoe UI, Arial, sans-serif" font-size="11" fill="#8b949e" text-anchor="end">5 repos (10%)</text>
<rect x="25" y="282" width="350" height="8" rx="4" fill="#161b22"/>
<rect x="25" y="282" width="116.66666666666666" height="8" rx="4" fill="#178600"/>
<text x="25" y="316" font-family="Segoe UI, Arial, sans-serif" font-size="12" fill="#e6edf3">Shell</text>
<text x="375" y="316" font-family="Segoe UI, Arial, sans-serif" font-size="11" fill="#8b949e" text-anchor="end">1 repos (2%)</text>
<rect x="25" y="324" width="350" height="8" rx="4" fill="#161b22"/>
<rect x="25" y="324" width="23.333333333333332" height="8" rx="4" fill="#89e051"/>
<text x="25" y="356" font-family="Segoe UI, Arial, sans-serif" font-size="9" fill="#8b949e">Based on 50 public repositories</text>
</svg>